# xmcd
# Track frame offsets:
# 150
# 13528
# 26955
# 40199
# 54168
# 67966
# 82474
# 96649
# 109917
# 124280
# 136322
# 147841
# 161668
# 174669
# 188117
# 200799
# 213711
# 228050
# 242354
# 255021
#
# Disc length: 3564 seconds
# Revision: 0
# Processed by: cddbd v1.4PL0 Copyright (c) Steve Scherf et al.
# Submitted via: VisiTrax 2.9.5.181 - For more info visit www.synapsa.com
#
DISCID=1f0dea14
DTITLE=The Carter Family - The Decca Sessions Volume One (1936)
DYEAR=2001
DGENRE=Bluegrass
TTITLE0=My Dixie Darling
TTITLE1=Give Me Your Love and I'll Give You Mine
TTITLE2=Are You Lonesome Tonight?
TTITLE3=The Last Move For You
TTITLE4=The Wayworn Traveller
TTITLE5=Just Another Broken Heart
TTITLE6=When Silver Threads Are Golden Again
TTITLE7=There's No One Like Mother To Me
TTITLE8=In A Little Village Churchyard
TTITLE9=Jealous Hearted Me
TTITLE10=My Native Home
TTITLE11=Sweet Heaven In My View
TTITLE12=No Depression
TTITLE13=Bonnie Blue Eyes
TTITLE14=My Honey Lou
TTITLE15=In The Shadows Of The Pines
TTITLE16=Answer To Weeping  Willow
TTITLE17=You've Been A Friend To Me
TTITLE18=Where The Silvery Colorado Winds Its Way
TTITLE19=Lay My Head Beneath The Rose
EXTD=Catfish Records KATCD188 c. 2001
EXTT0=
EXTT1=
EXTT2=
EXTT3=
EXTT4=
EXTT5=
EXTT6=
EXTT7=
EXTT8=
EXTT9=
EXTT10=
EXTT11=
EXTT12=
EXTT13=
EXTT14=
EXTT15=
EXTT16=
EXTT17=
EXTT18=
EXTT19=
PLAYORDER=
